<?xml version="1.0" encoding="UTF-8" standalone="no"?>
<!DOCTYPE svg PUBLIC "-//W3C//DTD SVG 1.1//EN" "http://www.w3.org/Graphics/SVG/1.1/DTD/svg11.dtd">
<svg width="100%" height="100%" viewBox="0 0 57 57" version="1.1" xmlns="http://www.w3.org/2000/svg" xmlns:xlink="http://www.w3.org/1999/xlink" xml:space="preserve" xmlns:serif="http://www.serif.com/" style="fill-rule:evenodd;clip-rule:evenodd;stroke-linejoin:round;stroke-miterlimit:1.41421;">
    <g>
        <g transform="matrix(1.15242,0,0,1.15244,-4.26397,-5.99268)">
            <circle cx="28.1" cy="30" r="4.4"/>
        </g>
        <g transform="matrix(1.15242,0,0,1.15244,-4.26397,-5.99268)">
            <path d="M33.6,19.2L22.6,19.2C21,19.2 19.6,19.7 18.7,20.6C17.8,21.5 17.3,22.9 17.3,24.5L17.3,35.5C17.3,37.1 17.8,38.5 18.8,39.5C19.8,40.4 21.1,40.9 22.7,40.9L33.6,40.9C35.2,40.9 36.6,40.4 37.5,39.5C38.5,38.6 39,37.2 39,35.6L39,24.6C39,23 38.5,21.7 37.6,20.7C36.6,19.7 35.3,19.2 33.6,19.2ZM28.1,36.8C24.3,36.8 21.3,33.7 21.3,30C21.3,26.2 24.4,23.2 28.1,23.2C31.8,23.2 35,26.2 35,30C35,33.8 31.9,36.8 28.1,36.8ZM35.2,24.5C34.3,24.5 33.6,23.8 33.6,22.9C33.6,22 34.3,21.3 35.2,21.3C36.1,21.3 36.8,22 36.8,22.9C36.8,23.8 36.1,24.5 35.2,24.5Z" style="fill-rule:nonzero;"/>
        </g>
        <g transform="matrix(1.15242,0,0,1.15244,-4.26397,-5.99268)">
            <path d="M28.3,5.2C14.7,5.2 3.7,16.2 3.7,29.8C3.7,43.4 14.7,54.4 28.3,54.4C41.9,54.4 52.9,43.4 52.9,29.8C53,16.2 41.9,5.2 28.3,5.2ZM41.4,35.6C41.4,37.9 40.6,39.9 39.2,41.3C37.8,42.7 35.8,43.4 33.6,43.4L22.7,43.4C20.5,43.4 18.5,42.7 17.1,41.3C15.6,39.9 14.9,37.9 14.9,35.6L14.9,24.6C14.9,20 18,16.8 22.7,16.8L33.7,16.8C36,16.8 37.9,17.6 39.3,19C40.7,20.4 41.4,22.3 41.4,24.6L41.4,35.6Z" style="fill-rule:nonzero;"/>
        </g>
    </g>
</svg>
